<svg width="66" height="51" viewBox="0 0 66 51" fill="none" xmlns="http://www.w3.org/2000/svg">
<path d="M40.545 14.5012C40.1778 13.8651 39.652 13.3349 39.0189 12.9625C38.3858 12.59 37.6669 12.3881 36.9325 12.3762H9.7325L8.5 7.57375C8.37547 7.11015 8.09765 6.70238 7.71179 6.41684C7.32592 6.1313 6.85475 5.98481 6.375 6.00125H2.125C1.56141 6.00125 1.02091 6.22513 0.622398 6.62364C0.223883 7.02216 0 7.56266 0 8.12625C0 8.68983 0.223883 9.23033 0.622398 9.62885C1.02091 10.0274 1.56141 10.2512 2.125 10.2512H4.76L10.625 32.0537C10.7495 32.5173 11.0273 32.9251 11.4132 33.2107C11.7991 33.4962 12.2703 33.6427 12.75 33.6262H31.875C32.2674 33.6251 32.6518 33.5152 32.9857 33.3089C33.3195 33.1026 33.5897 32.8079 33.7663 32.4575L40.7363 18.5175C41.0383 17.8843 41.179 17.1861 41.1456 16.4853C41.1122 15.7845 40.9059 15.1029 40.545 14.5012Z" fill="#231F20"/>
<path d="M11.6875 44.2512C13.4479 44.2512 14.875 42.8241 14.875 41.0637C14.875 39.3033 13.4479 37.8762 11.6875 37.8762C9.92709 37.8762 8.5 39.3033 8.5 41.0637C8.5 42.8241 9.92709 44.2512 11.6875 44.2512Z" fill="#231F20"/>
<path d="M32.9375 44.2512C34.6979 44.2512 36.125 42.8241 36.125 41.0637C36.125 39.3033 34.6979 37.8762 32.9375 37.8762C31.1771 37.8762 29.75 39.3033 29.75 41.0637C29.75 42.8241 31.1771 44.2512 32.9375 44.2512Z" fill="#231F20"/>
</svg>
