<svg width="53" height="53" viewBox="0 0 53 53" fill="none" xmlns="http://www.w3.org/2000/svg">
<path d="M27 24.0833C28.5163 24.0833 29.9986 23.6337 31.2594 22.7913C32.5201 21.9488 33.5028 20.7515 34.0831 19.3506C34.6633 17.9497 34.8152 16.4082 34.5193 14.921C34.2235 13.4338 33.4933 12.0677 32.4211 10.9955C31.3489 9.92332 29.9829 9.19314 28.4957 8.89732C27.0085 8.6015 25.467 8.75332 24.0661 9.33359C22.6652 9.91387 21.4678 10.8965 20.6254 12.1573C19.783 13.4181 19.3333 14.9003 19.3333 16.4167C19.3333 18.45 20.141 20.4 21.5788 21.8378C23.0166 23.2756 24.9667 24.0833 27 24.0833ZM27 12.5833C27.7581 12.5833 28.4993 12.8082 29.1297 13.2294C29.7601 13.6506 30.2514 14.2493 30.5415 14.9497C30.8317 15.6502 30.9076 16.4209 30.7597 17.1645C30.6117 17.9081 30.2467 18.5911 29.7106 19.1272C29.1745 19.6633 28.4914 20.0284 27.7478 20.1763C27.0042 20.3243 26.2335 20.2483 25.533 19.9582C24.8326 19.6681 24.2339 19.1767 23.8127 18.5464C23.3915 17.916 23.1666 17.1748 23.1666 16.4167C23.1666 15.4 23.5705 14.425 24.2894 13.7061C25.0083 12.9872 25.9833 12.5833 27 12.5833Z" fill="#231F20"/>
<path d="M27 27.9166C23.4417 27.9166 20.0291 29.3302 17.513 31.8463C14.9969 34.3624 13.5833 37.775 13.5833 41.3333C13.5833 41.8416 13.7852 42.3291 14.1447 42.6886C14.5041 43.048 14.9916 43.25 15.5 43.25C16.0083 43.25 16.4958 43.048 16.8553 42.6886C17.2147 42.3291 17.4166 41.8416 17.4166 41.3333C17.4166 38.7916 18.4263 36.3541 20.2235 34.5569C22.0208 32.7596 24.4583 31.75 27 31.75C29.5416 31.75 31.9792 32.7596 33.7764 34.5569C35.5736 36.3541 36.5833 38.7916 36.5833 41.3333C36.5833 41.8416 36.7852 42.3291 37.1447 42.6886C37.5041 43.048 37.9916 43.25 38.5 43.25C39.0083 43.25 39.4958 43.048 39.8553 42.6886C40.2147 42.3291 40.4166 41.8416 40.4166 41.3333C40.4166 37.775 39.0031 34.3624 36.487 31.8463C33.9709 29.3302 30.5583 27.9166 27 27.9166Z" fill="#231F20"/>
<circle cx="26.5" cy="26.5" r="24.5" stroke="#231F20" stroke-width="4"/>
</svg>
